<?xml version="1.0" encoding="UTF-8" standalone="no"?>
<svg width="800" height="240" viewBox="0 0 800 240" xmlns="http://www.w3.org/2000/svg">
  <style>
    .grid-line { stroke: #e5e7eb; stroke-width: 1; }
    .profit-region { fill: rgba(16, 185, 129, 0.1); }
    .loss-region { fill: rgba(244, 63, 94, 0.1); }
    .threshold-line { stroke: rgba(244, 63, 94, 0.6); stroke-width: 2; stroke-dasharray: 5,5; }
    .returns-line { stroke: #10b981; stroke-width: 3; fill: none; }
    .spread-line { stroke: #3b82f6; stroke-width: 2; fill: none; }
    .axis-labels { font-family: Arial, sans-serif; font-size: 10px; fill: #6b7280; }
    .tooltip { font-family: Arial, sans-serif; font-size: 12px; }
  </style>
  
  <!-- Background Grid -->
  <line x1="0" y1="40" x2="800" y2="40" class="grid-line" />
  <line x1="0" y1="80" x2="800" y2="80" class="grid-line" />
  <line x1="0" y1="120" x2="800" y2="120" class="grid-line" />
  <line x1="0" y1="160" x2="800" y2="160" class="grid-line" />
  <line x1="0" y1="200" x2="800" y2="200" class="grid-line" />
  
  <!-- Threshold line representing profitability threshold -->
  <line x1="0" y1="100" x2="800" y2="100" class="threshold-line" />
  
  <!-- Profit/Loss regions -->
  <rect x="0" y="0" width="800" height="100" class="loss-region" />
  <rect x="0" y="100" width="800" height="140" class="profit-region" />
  
  <!-- Funding rate spread line -->
  <path d="M0,120 C50,140 100,90 150,130 C200,170 250,150 300,120 C350,90 400,110 450,140 C500,170 550,130 600,110 C650,90 700,120 750,100 L800,120" class="spread-line" />
  
  <!-- Returns line showing cumulative account growth -->
  <path d="M0,200 C50,195 100,190 150,185 C200,180 250,175 300,170 C350,165 400,155 450,145 C500,135 550,125 600,105 C650,85 700,65 750,50 L800,40" class="returns-line" />

  <!-- Invisible interactive overlay for tooltips -->
  <rect x="0" y="0" width="800" height="240" fill="none" pointer-events="all" />
</svg>